<?xml version="1.0" encoding="utf-8"?><svg xmlns="http://www.w3.org/2000/svg" xmlns:xlink="http://www.w3.org/1999/xlink"><symbol viewBox="0 0 11 28" id="angle-left"><path d="M9.797 8.5q0 .203-.156.359L3.5 15l6.141 6.141q.156.156.156.359t-.156.359l-.781.781q-.156.156-.359.156t-.359-.156L.861 15.359Q.705 15.203.705 15t.156-.359L8.142 7.36q.156-.156.359-.156t.359.156l.781.781q.156.156.156.359z"/></symbol><symbol viewBox="0 0 10 28" id="angle-right"><path d="M9.297 15q0 .203-.156.359L1.86 22.64q-.156.156-.359.156t-.359-.156l-.781-.781q-.156-.156-.156-.359t.156-.359L6.502 15 .361 8.859Q.205 8.703.205 8.5t.156-.359l.781-.781q.156-.156.359-.156t.359.156l7.281 7.281q.156.156.156.359z"/></symbol><symbol viewBox="0 0 24 28" id="bars"><path d="M24 21v2q0 .406-.297.703T23 24H1q-.406 0-.703-.297T0 23v-2q0-.406.297-.703T1 20h22q.406 0 .703.297T24 21zm0-8v2q0 .406-.297.703T23 16H1q-.406 0-.703-.297T0 15v-2q0-.406.297-.703T1 12h22q.406 0 .703.297T24 13zm0-8v2q0 .406-.297.703T23 8H1q-.406 0-.703-.297T0 7V5q0-.406.297-.703T1 4h22q.406 0 .703.297T24 5z"/></symbol><symbol viewBox="0 0 17 17" id="close"><title>Group 2 Copy 2</title><g transform="translate(-1 -1)" fill-rule="evenodd"><rect transform="rotate(45 9.392 9.397)" x="-1.483" y="8.397" width="21.75" height="2" rx="1"/><rect transform="rotate(-45 9.392 9.397)" x="-1.546" y="8.283" width="21.874" height="2.228" rx="1"/></g></symbol><symbol viewBox="0 0 27.039 5.153" id="eightshapes-logo"><path d="M8.268 3.816c-.154.056-.33.142-.689.142-.775 0-1.131-.472-1.131-1.183 0-.647.406-1.106 1.023-1.106.729 0 .965.532.965 1.235H6.875c0 .432.339.728.72.728.267 0 .574-.137.673-.219v.403zm-.261-1.212c0-.334-.197-.609-.544-.609-.395 0-.558.326-.588.609h1.132zm1.145-1.372h-.455V.778h.455v.454zm-.427.488h.402v2.186h-.402V1.72zm2.769 2.092c0 .665-.343 1.047-1.127 1.047-.231 0-.433-.03-.785-.15l.044-.374c.309.143.493.198.788.198.424 0 .678-.288.678-.75v-.216h-.009c-.171.227-.454.339-.733.339-.625 0-.934-.51-.934-1.076 0-.562.316-1.162.977-1.162.387 0 .601.142.721.377h.008V1.72h.373v2.092zm-.402-.973c0-.454-.21-.844-.639-.844-.407 0-.609.442-.609.814 0 .412.232.771.609.771s.639-.334.639-.741zm.702-2.147h.402v1.342h.009c.146-.231.398-.365.703-.365.565 0 .818.352.818.938v1.299h-.402V2.775c0-.51-.111-.759-.463-.78-.459 0-.665.369-.665.9v1.012h-.402V.692zm3.477 1.354h-.578v1.195c0 .253.153.39.338.39a.488.488 0 0 0 .273-.077v.343c-.09.026-.214.061-.342.061-.416 0-.674-.197-.674-.634V2.046h-.492V1.72h.492v-.505l.404-.129v.634h.578v.326zm.214 1.432c.158.103.386.154.502.154.184 0 .41-.077.41-.313 0-.398-.946-.364-.946-.977 0-.455.338-.673.771-.673.188 0 .343.039.501.086l-.034.352a1.172 1.172 0 0 0-.424-.112c-.206 0-.387.086-.387.266 0 .446.948.317.948 1.015 0 .467-.374.682-.764.682-.206 0-.415-.022-.6-.12l.023-.36zM17.013.692h.402v1.342h.009c.146-.231.399-.365.703-.365.565 0 .818.352.818.938v1.299h-.403V2.775c0-.51-.11-.759-.462-.78-.459 0-.665.369-.665.9v1.012h-.402V.692zm2.39 1.183c.202-.12.442-.206.72-.206.627 0 .879.309.879.904v.904c0 .248.009.364.018.429h-.378v-.283h-.008a.812.812 0 0 1-.678.335c-.471 0-.801-.206-.801-.682 0-.548.6-.72 1.015-.72.159 0 .271 0 .43.009 0-.377-.138-.57-.54-.57a1.03 1.03 0 0 0-.635.223l-.022-.343zm1.197.99c-.086 0-.172-.008-.258-.008-.219 0-.758.034-.758.419 0 .232.222.356.406.356.399 0 .609-.249.609-.574v-.193zm.698-1.145h.386v.309h.008c.106-.163.356-.36.741-.36.634 0 .943.519.943 1.106 0 .6-.279 1.183-.938 1.183-.386 0-.605-.15-.729-.352H21.7v1.2h-.402V1.72zm1.05.275c-.438 0-.647.416-.647.823 0 .364.188.814.643.814.434 0 .613-.484.604-.827.008-.394-.164-.81-.6-.81zm2.997 1.821c-.154.056-.33.142-.69.142-.776 0-1.132-.472-1.132-1.183 0-.647.408-1.106 1.024-1.106.729 0 .964.532.964 1.235h-1.559c0 .432.338.728.72.728.265 0 .574-.137.673-.219v.403zm-.262-1.212c0-.334-.197-.609-.545-.609-.394 0-.557.326-.586.609h1.131zm.615.874c.158.103.385.154.501.154.184 0 .411-.077.411-.313 0-.398-.947-.364-.947-.977 0-.455.34-.673.771-.673.188 0 .343.039.502.086l-.035.352a1.167 1.167 0 0 0-.424-.112c-.205 0-.385.086-.385.266 0 .446.946.317.946 1.015 0 .467-.372.682-.763.682-.206 0-.416-.022-.601-.12l.024-.36zM1.393 3.396c.06.06.06.157 0 .217l-.565.566a.153.153 0 0 1-.218 0l-.565-.566a.153.153 0 0 1 0-.217l.565-.565a.155.155 0 0 1 .218 0l.565.565zm.93.93c.06.06.06.156 0 .216l-.566.566a.153.153 0 0 1-.217 0l-.565-.566a.152.152 0 0 1 0-.216l.565-.566c.06-.06.157-.06.217 0l.566.566zM1.756 3.25a.153.153 0 0 1-.217 0l-.565-.565a.153.153 0 0 1 0-.217l.565-.566c.06-.06.157-.06.217 0l.566.566c.06.06.06.157 0 .217l-.566.565zm-.928-.928a.153.153 0 0 1-.217 0l-.566-.565a.153.153 0 0 1 0-.217L.61.975c.06-.06.157-.06.217 0l.567.565c.06.06.06.157 0 .217l-.566.565zm2.786 2.786a.153.153 0 0 1-.217 0L1.903 3.614a.155.155 0 0 1 0-.218l.566-.565c.06-.06.157-.06.217 0L4.18 4.325c.06.061.06.157 0 .217l-.566.566zm.928-.929a.152.152 0 0 1-.217 0L1.902 1.756a.153.153 0 0 1 0-.217l.566-.565c.06-.06.157-.06.217 0l2.422 2.422c.06.06.06.157 0 .217l-.565.566zM1.756 1.394a.153.153 0 0 1-.217 0L.974.828a.153.153 0 0 1 0-.217L1.54.045c.06-.06.157-.06.217 0l.566.566c.06.06.06.157 0 .217l-.567.566zm2.786.928a.153.153 0 0 1-.217 0L2.831.828a.153.153 0 0 1 0-.217l.565-.565c.06-.06.157-.06.217 0L5.107 1.54c.06.06.06.157 0 .217l-.565.565z"/></symbol><symbol viewBox="0 0 28 28" id="eightshapes-mark"><path d="M7.642 18.404a.825.825 0 0 1 0 1.168L4.604 22.61a.824.824 0 0 1-1.17 0L.398 19.572a.825.825 0 0 1 0-1.168l3.036-3.039a.835.835 0 0 1 1.17 0l3.038 3.039zm4.997 4.999a.817.817 0 0 1 0 1.161l-3.041 3.043a.826.826 0 0 1-1.166 0l-3.039-3.043a.817.817 0 0 1 0-1.161l3.039-3.043a.828.828 0 0 1 1.166 0l3.041 3.043zm-3.047-5.78a.823.823 0 0 1-1.165 0l-3.04-3.042a.821.821 0 0 1 0-1.165l3.04-3.042a.821.821 0 0 1 1.165 0l3.042 3.042a.823.823 0 0 1 0 1.165l-3.042 3.042zm-4.986-4.989a.825.825 0 0 1-1.168 0L.399 9.595a.825.825 0 0 1 0-1.168l3.039-3.039a.825.825 0 0 1 1.168 0l3.039 3.039a.825.825 0 0 1 0 1.168l-3.039 3.039zM19.58 27.607a.83.83 0 0 1-1.169 0l-8.029-8.029a.827.827 0 0 1 0-1.17l3.042-3.04a.827.827 0 0 1 1.165 0l8.031 8.03a.82.82 0 0 1 0 1.166l-3.04 3.043zm4.986-4.997a.82.82 0 0 1-1.166 0L10.377 9.593a.825.825 0 0 1 0-1.168l3.041-3.039a.825.825 0 0 1 1.168 0l13.019 13.018a.83.83 0 0 1 0 1.168l-3.039 3.038zM9.594 7.645a.821.821 0 0 1-1.165 0L5.391 4.604a.823.823 0 0 1 0-1.166L8.43.397a.821.821 0 0 1 1.165 0l3.042 3.041a.823.823 0 0 1 0 1.166L9.594 7.645zm14.972 4.986a.823.823 0 0 1-1.166 0l-8.032-8.03a.824.824 0 0 1 0-1.167L18.406.395a.826.826 0 0 1 1.169 0l8.029 8.03a.83.83 0 0 1 0 1.168l-3.038 3.038z"/></symbol><symbol viewBox="0 0 24 28" id="github"><path d="M24 14q0 3.922-2.289 7.055t-5.914 4.336q-.422.078-.617-.109t-.195-.469v-3.297q0-1.516-.812-2.219.891-.094 1.602-.281t1.469-.609 1.266-1.039.828-1.641.32-2.352q0-1.891-1.234-3.219.578-1.422-.125-3.187-.438-.141-1.266.172t-1.437.688l-.594.375q-1.453-.406-3-.406t-3 .406q-.25-.172-.664-.422T7.033 7.18t-1.344-.211q-.688 1.766-.109 3.187-1.234 1.328-1.234 3.219 0 1.328.32 2.344t.82 1.641 1.258 1.047 1.469.609 1.602.281q-.625.562-.766 1.609-.328.156-.703.234t-.891.078-1.023-.336-.867-.977q-.297-.5-.758-.812t-.773-.375l-.313-.047q-.328 0-.453.07t-.078.18.141.219.203.187l.109.078q.344.156.68.594t.492.797l.156.359q.203.594.688.961t1.047.469 1.086.109.867-.055l.359-.063q0 .594.008 1.391t.008.844q0 .281-.203.469t-.625.109q-3.625-1.203-5.914-4.336T.003 13.998q0-3.266 1.609-6.023t4.367-4.367 6.023-1.609 6.023 1.609 4.367 4.367 1.609 6.023z"/></symbol><symbol viewBox="0 0 5 14" id="grip"><title>Group Copy 2</title><g fill-rule="evenodd"><ellipse cx="1" cy="1" rx="1" ry="1"/><ellipse cx="4" cy="1" rx="1" ry="1"/><ellipse cx="1" cy="4" rx="1" ry="1"/><ellipse cx="4" cy="4" rx="1" ry="1"/><circle cx="1" cy="7" r="1"/><circle cx="4" cy="7" r="1"/><circle cx="1" cy="10" r="1"/><circle cx="4" cy="10" r="1"/><circle cx="1" cy="13" r="1"/><circle cx="4" cy="13" r="1"/></g></symbol><symbol viewBox="0 0 15 6" id="grip-horizontal"><title>Group Copy 2</title><g transform="rotate(-90 3 2.5)" fill-rule="evenodd"><ellipse cx="1" cy="1" rx="1" ry="1"/><ellipse cx="4" cy="1" rx="1" ry="1"/><ellipse cx="1" cy="4" rx="1" ry="1"/><ellipse cx="4" cy="4" rx="1" ry="1"/><circle cx="1" cy="7" r="1"/><circle cx="4" cy="7" r="1"/><circle cx="1" cy="10" r="1"/><circle cx="4" cy="10" r="1"/><circle cx="1" cy="13" r="1"/><circle cx="4" cy="13" r="1"/></g></symbol><symbol viewBox="0 0 24 28" id="linkedin"><path d="M5.453 9.766V25.25H.297V9.766h5.156zm.328-4.782q.016 1.141-.789 1.906t-2.117.766h-.031q-1.281 0-2.063-.766T0 4.984Q0 3.828.805 3.07t2.102-.758 2.078.758.797 1.914zM24 16.375v8.875h-5.141v-8.281q0-1.641-.633-2.57t-1.977-.93q-.984 0-1.648.539t-.992 1.336q-.172.469-.172 1.266v8.641H8.296q.031-6.234.031-10.109t-.016-4.625l-.016-.75h5.141v2.25h-.031q.313-.5.641-.875t.883-.812 1.359-.68 1.789-.242q2.672 0 4.297 1.773t1.625 5.195z"/></symbol><symbol viewBox="0 0 28 28" id="medium"><path d="M9.328 6.578v18.328q0 .391-.195.664t-.57.273q-.266 0-.516-.125L.781 22.077q-.328-.156-.555-.523t-.227-.727V3.014q0-.313.156-.531t.453-.219q.219 0 .688.234l7.984 4q.047.047.047.078zm1 1.578l8.344 13.531-8.344-4.156V8.156zM28 8.437v16.469q0 .391-.219.633t-.594.242-.734-.203l-6.891-3.437zm-.047-1.874q0 .047-4.008 6.555t-4.695 7.617l-6.094-9.906 5.063-8.234q.266-.438.812-.438.219 0 .406.094L27.89 6.47q.063.031.063.094z"/></symbol><symbol viewBox="0 0 24 24" id="participants"><path d="M15.5 22H.5c-.3 0-.5-.2-.5-.5V17c0-1 3.6-2.6 5.5-3.3v-1.4c-.4-.3-.9-1-1-2.4-.4-.3-.6-.9-.6-1.5 0-.3.1-.6.2-.9l.3-.3c-.3-.7-.8-1.7-.2-2.4.2-.3.6-.4 1-.4.5-1 2.1-1.4 3.3-1.4 1.4 0 3.1.5 3.5 1.9.2.9-.1 1.8-.3 2.3.1.1.2.2.2.3.1.2.2.5.2.9 0 .6-.2 1.2-.7 1.5-.1 1.5-.6 2.1-1 2.4v1.4c2 .7 5.6 2.3 5.6 3.3v4.5c0 .3-.2.5-.5.5zM1 21h14v-3.9c-.4-.4-2.6-1.6-5.2-2.6-.2-.1-.3-.3-.3-.5v-2c0-.2.1-.4.3-.5 0 0 .7-.3.7-2 0-.3.2-.5.5-.5 0 0 .1-.3.1-.7 0-.2-.1-.3-.1-.3-.3 0-.5-.2-.5-.5 0-.2.1-.3.2-.5.2-.4.5-1.1.3-1.9C10.9 4.5 9.8 4 8.5 4S6.1 4.5 6 5.1c-.1.3-.3.4-.6.4-.4-.1-.5 0-.5 0-.1.1 0 .4.4 1.4.1.3.2.5.2.6 0 .1-.1.3-.1.4S5.1 8 5 8c0 0-.1 0-.1.1-.1.4 0 .8.2.9.3 0 .4.2.4.5 0 1.7.7 2 .7 2 .2.1.3.3.3.5v2c0 .2-.1.4-.3.5-2.6 1-4.8 2.2-5.2 2.6V21z"/><path d="M23.5 22H18c-.3 0-.5-.2-.5-.5s.2-.5.5-.5h5v-3.9c-.3-.2-1.5-.7-2.4-1-.6-.2-1.2-.4-1.8-.7-.2-.1-.3-.3-.3-.5v-1.5c0-.2.1-.4.4-.5 0 0 .6-.2.6-1.5 0-.2.2-.4.4-.5.1-.2.2-.9 0-1-.3 0-.4-.2-.4-.5 0-.2.1-.3.2-.5.2-.3.5-.9.3-1.3-.1-.4-1-.8-2-.8s-1.9.3-2 .8c-.1.3-.3.4-.6.4-.2-.1-.3 0-.3 0 0 .1.1.5.3 1 .1.2.1.4.1.5 0 .3-.2.5-.5.5-.1.1 0 .8.1 1 .2.1.4.3.4.5 0 1.3.6 1.5.6 1.5.2.1.4.3.4.5v1c0 .3-.2.5-.5.5s-.5-.2-.5-.5v-.7c-.4-.2-.9-.8-1-2-.3-.3-.5-.9-.5-1.5 0-.2 0-.6.2-.8.1-.1.1-.2.2-.3-.2-.6-.5-1.4 0-1.9.1-.2.4-.3.8-.3.6-.8 1.8-1.1 2.8-1.1 1.1 0 2.6.4 3 1.5.3.8-.1 1.5-.3 2 .1.1.1.2.2.2.1.2.1.6.1.8 0 .6-.2 1.2-.5 1.4-.1 1.2-.6 1.7-1 2v.9c.5.2 1 .4 1.4.5 2.2.8 3.1 1.1 3.1 1.8v4.5c0 .3-.2.5-.5.5z"/></symbol><symbol viewBox="0 0 24 24" id="stopwatch"><path d="M19.4 7.3l1.1-1.1.1.1c.1.1.2.1.4.1s.3 0 .4-.1c.2-.2.2-.5 0-.7l-1-1c-.2-.2-.5-.2-.7 0s-.2.5 0 .7l.1.1-1.1 1.1c-1.3-1.2-2.9-2-4.7-2.4V1h1c.3 0 .5-.2.5-.5S15.3 0 15 0H9c-.3 0-.5.2-.5.5s.2.5.5.5h1v3.2c-4.6.9-8 5-8 9.8 0 5.5 4.5 10 10 10s10-4.5 10-10c0-2.6-1-4.9-2.6-6.7zM11 1h2v3.1c-.3-.1-.7-.1-1-.1s-.7 0-1 .1V1zm1 22c-5 0-9-4-9-9s4-9 9-9 9 4 9 9-4 9-9 9z"/><path d="M7.9 9.1c-.2-.1-.6-.1-.8 0s-.1.6 0 .8l4.5 4.5c.1.1.2.1.4.1s.3 0 .4-.1c.2-.2.2-.5 0-.7L7.9 9.1z"/></symbol><symbol viewBox="0 0 26 28" id="twitter"><path d="M25.312 6.375q-1.047 1.531-2.531 2.609.016.219.016.656 0 2.031-.594 4.055t-1.805 3.883-2.883 3.289-4.031 2.281T8.437 24q-4.234 0-7.75-2.266.547.063 1.219.063 3.516 0 6.266-2.156-1.641-.031-2.938-1.008t-1.781-2.492q.516.078.953.078.672 0 1.328-.172-1.75-.359-2.898-1.742t-1.148-3.211v-.063q1.062.594 2.281.641-1.031-.688-1.641-1.797t-.609-2.406q0-1.375.688-2.547Q4.298 7.25 7.009 8.649t5.805 1.555q-.125-.594-.125-1.156 0-2.094 1.477-3.57t3.57-1.477q2.188 0 3.687 1.594 1.703-.328 3.203-1.219-.578 1.797-2.219 2.781 1.453-.156 2.906-.781z"/></symbol></svg>