<svg xmlns="http://www.w3.org/2000/svg" width="28" height="28" viewBox="0 0 28 28"><path d="M12 26h14V16h-6.5q-.625 0-1.062-.438T18 14.5V8h-6v18zm4-22.5v-1q0-.203-.148-.352T15.5 2h-11q-.203 0-.352.148T4 2.5v1q0 .203.148.352T4.5 4h11q.203 0 .352-.148T16 3.5zM20 14h4.672L20 9.328V14zm8 2v10.5q0 .625-.438 1.062T26.5 28h-15q-.625 0-1.062-.438T10 26.5V24H1.5q-.625 0-1.062-.438T0 22.5v-21Q0 .875.438.438T1.5 0h17q.625 0 1.062.438T20 1.5v5.125q.328.203.562.437l6.375 6.375q.438.438.75 1.188T28 16z"/></svg>