<svg xmlns="http://www.w3.org/2000/svg" width="22" height="28" viewBox="0 0 22 28"><path d="M20.281 20.656q0 .625-.438 1.062l-2.125 2.125q-.438.438-1.062.438t-1.062-.438L11 19.249l-4.594 4.594q-.438.438-1.062.438t-1.062-.438l-2.125-2.125q-.438-.438-.438-1.062t.438-1.062L6.751 15l-4.594-4.594q-.438-.438-.438-1.062t.438-1.062l2.125-2.125q.438-.438 1.062-.438t1.062.438L11 10.751l4.594-4.594q.438-.438 1.062-.438t1.062.438l2.125 2.125q.438.438.438 1.062t-.438 1.062L15.249 15l4.594 4.594q.438.438.438 1.062z"/></svg>