<svg xmlns="http://www.w3.org/2000/svg" width="27.039" height="5.153" viewBox="0 0 27.039 5.153"><path d="M8.268 3.816c-.154.056-.33.142-.689.142-.775 0-1.131-.472-1.131-1.183 0-.647.406-1.106 1.023-1.106.729 0 .965.532.965 1.235H6.875c0 .432.339.728.72.728.267 0 .574-.137.673-.219v.403zm-.261-1.212c0-.334-.197-.609-.544-.609-.395 0-.558.326-.588.609h1.132zm1.145-1.372h-.455V.778h.455v.454zm-.427.488h.402v2.186h-.402V1.72zm2.769 2.092c0 .665-.343 1.047-1.127 1.047-.231 0-.433-.03-.785-.15l.044-.374c.309.143.493.198.788.198.424 0 .678-.288.678-.75v-.216h-.009c-.171.227-.454.339-.733.339-.625 0-.934-.51-.934-1.076 0-.562.316-1.162.977-1.162.387 0 .601.142.721.377h.008V1.72h.373v2.092zm-.402-.973c0-.454-.21-.844-.639-.844-.407 0-.609.442-.609.814 0 .412.232.771.609.771s.639-.334.639-.741zm.702-2.147h.402v1.342h.009c.146-.231.398-.365.703-.365.565 0 .818.352.818.938v1.299h-.402V2.775c0-.51-.111-.759-.463-.78-.459 0-.665.369-.665.9v1.012h-.402V.692zm3.477 1.354h-.578v1.195c0 .253.153.39.338.39a.488.488 0 0 0 .273-.077v.343c-.09.026-.214.061-.342.061-.416 0-.674-.197-.674-.634V2.046h-.492V1.72h.492v-.505l.404-.129v.634h.578v.326zm.214 1.432c.158.103.386.154.502.154.184 0 .41-.077.41-.313 0-.398-.946-.364-.946-.977 0-.455.338-.673.771-.673.188 0 .343.039.501.086l-.034.352a1.172 1.172 0 0 0-.424-.112c-.206 0-.387.086-.387.266 0 .446.948.317.948 1.015 0 .467-.374.682-.764.682-.206 0-.415-.022-.6-.12l.023-.36zM17.013.692h.402v1.342h.009c.146-.231.399-.365.703-.365.565 0 .818.352.818.938v1.299h-.403V2.775c0-.51-.11-.759-.462-.78-.459 0-.665.369-.665.9v1.012h-.402V.692zm2.39 1.183c.202-.12.442-.206.72-.206.627 0 .879.309.879.904v.904c0 .248.009.364.018.429h-.378v-.283h-.008a.812.812 0 0 1-.678.335c-.471 0-.801-.206-.801-.682 0-.548.6-.72 1.015-.72.159 0 .271 0 .43.009 0-.377-.138-.57-.54-.57a1.03 1.03 0 0 0-.635.223l-.022-.343zm1.197.99c-.086 0-.172-.008-.258-.008-.219 0-.758.034-.758.419 0 .232.222.356.406.356.399 0 .609-.249.609-.574v-.193zm.698-1.145h.386v.309h.008c.106-.163.356-.36.741-.36.634 0 .943.519.943 1.106 0 .6-.279 1.183-.938 1.183-.386 0-.605-.15-.729-.352H21.7v1.2h-.402V1.72zm1.05.275c-.438 0-.647.416-.647.823 0 .364.188.814.643.814.434 0 .613-.484.604-.827.008-.394-.164-.81-.6-.81zm2.997 1.821c-.154.056-.33.142-.69.142-.776 0-1.132-.472-1.132-1.183 0-.647.408-1.106 1.024-1.106.729 0 .964.532.964 1.235h-1.559c0 .432.338.728.72.728.265 0 .574-.137.673-.219v.403zm-.262-1.212c0-.334-.197-.609-.545-.609-.394 0-.557.326-.586.609h1.131zm.615.874c.158.103.385.154.501.154.184 0 .411-.077.411-.313 0-.398-.947-.364-.947-.977 0-.455.34-.673.771-.673.188 0 .343.039.502.086l-.035.352a1.167 1.167 0 0 0-.424-.112c-.205 0-.385.086-.385.266 0 .446.946.317.946 1.015 0 .467-.372.682-.763.682-.206 0-.416-.022-.601-.12l.024-.36zM1.393 3.396c.06.06.06.157 0 .217l-.565.566a.153.153 0 0 1-.218 0l-.565-.566a.153.153 0 0 1 0-.217l.565-.565a.155.155 0 0 1 .218 0l.565.565zm.93.93c.06.06.06.156 0 .216l-.566.566a.153.153 0 0 1-.217 0l-.565-.566a.152.152 0 0 1 0-.216l.565-.566c.06-.06.157-.06.217 0l.566.566zM1.756 3.25a.153.153 0 0 1-.217 0l-.565-.565a.153.153 0 0 1 0-.217l.565-.566c.06-.06.157-.06.217 0l.566.566c.06.06.06.157 0 .217l-.566.565zm-.928-.928a.153.153 0 0 1-.217 0l-.566-.565a.153.153 0 0 1 0-.217L.61.975c.06-.06.157-.06.217 0l.567.565c.06.06.06.157 0 .217l-.566.565zm2.786 2.786a.153.153 0 0 1-.217 0L1.903 3.614a.155.155 0 0 1 0-.218l.566-.565c.06-.06.157-.06.217 0L4.18 4.325c.06.061.06.157 0 .217l-.566.566zm.928-.929a.152.152 0 0 1-.217 0L1.902 1.756a.153.153 0 0 1 0-.217l.566-.565c.06-.06.157-.06.217 0l2.422 2.422c.06.06.06.157 0 .217l-.565.566zM1.756 1.394a.153.153 0 0 1-.217 0L.974.828a.153.153 0 0 1 0-.217L1.54.045c.06-.06.157-.06.217 0l.566.566c.06.06.06.157 0 .217l-.567.566zm2.786.928a.153.153 0 0 1-.217 0L2.831.828a.153.153 0 0 1 0-.217l.565-.565c.06-.06.157-.06.217 0L5.107 1.54c.06.06.06.157 0 .217l-.565.565z"/></svg>