<svg xmlns="http://www.w3.org/2000/svg" width="24" height="28" viewBox="0 0 24 28"><path d="M24 14q0 3.922-2.289 7.055t-5.914 4.336q-.422.078-.617-.109t-.195-.469v-3.297q0-1.516-.812-2.219.891-.094 1.602-.281t1.469-.609 1.266-1.039.828-1.641.32-2.352q0-1.891-1.234-3.219.578-1.422-.125-3.187-.438-.141-1.266.172t-1.437.688l-.594.375q-1.453-.406-3-.406t-3 .406q-.25-.172-.664-.422T7.033 7.18t-1.344-.211q-.688 1.766-.109 3.187-1.234 1.328-1.234 3.219 0 1.328.32 2.344t.82 1.641 1.258 1.047 1.469.609 1.602.281q-.625.562-.766 1.609-.328.156-.703.234t-.891.078-1.023-.336-.867-.977q-.297-.5-.758-.812t-.773-.375l-.313-.047q-.328 0-.453.07t-.078.18.141.219.203.187l.109.078q.344.156.68.594t.492.797l.156.359q.203.594.688.961t1.047.469 1.086.109.867-.055l.359-.063q0 .594.008 1.391t.008.844q0 .281-.203.469t-.625.109q-3.625-1.203-5.914-4.336T.003 13.998q0-3.266 1.609-6.023t4.367-4.367 6.023-1.609 6.023 1.609 4.367 4.367 1.609 6.023z"/></svg>