<svg xmlns="http://www.w3.org/2000/svg" width="28" height="28" viewBox="0 0 28 28"><path d="M9.328 6.578v18.328q0 .391-.195.664t-.57.273q-.266 0-.516-.125L.781 22.077q-.328-.156-.555-.523t-.227-.727V3.014q0-.313.156-.531t.453-.219q.219 0 .688.234l7.984 4q.047.047.047.078zm1 1.578l8.344 13.531-8.344-4.156V8.156zM28 8.437v16.469q0 .391-.219.633t-.594.242-.734-.203l-6.891-3.437zm-.047-1.874q0 .047-4.008 6.555t-4.695 7.617l-6.094-9.906 5.063-8.234q.266-.438.812-.438.219 0 .406.094L27.89 6.47q.063.031.063.094z"/></svg>