<svg xmlns="http://www.w3.org/2000/svg" width="24" height="24" viewBox="0 0 24 24"><path d="M15.5 22H.5c-.3 0-.5-.2-.5-.5V17c0-1 3.6-2.6 5.5-3.3v-1.4c-.4-.3-.9-1-1-2.4-.4-.3-.6-.9-.6-1.5 0-.3.1-.6.2-.9l.3-.3c-.3-.7-.8-1.7-.2-2.4.2-.3.6-.4 1-.4.5-1 2.1-1.4 3.3-1.4 1.4 0 3.1.5 3.5 1.9.2.9-.1 1.8-.3 2.3.1.1.2.2.2.3.1.2.2.5.2.9 0 .6-.2 1.2-.7 1.5-.1 1.5-.6 2.1-1 2.4v1.4c2 .7 5.6 2.3 5.6 3.3v4.5c0 .3-.2.5-.5.5zM1 21h14v-3.9c-.4-.4-2.6-1.6-5.2-2.6-.2-.1-.3-.3-.3-.5v-2c0-.2.1-.4.3-.5 0 0 .7-.3.7-2 0-.3.2-.5.5-.5 0 0 .1-.3.1-.7 0-.2-.1-.3-.1-.3-.3 0-.5-.2-.5-.5 0-.2.1-.3.2-.5.2-.4.5-1.1.3-1.9C10.9 4.5 9.8 4 8.5 4S6.1 4.5 6 5.1c-.1.3-.3.4-.6.4-.4-.1-.5 0-.5 0-.1.1 0 .4.4 1.4.1.3.2.5.2.6 0 .1-.1.3-.1.4S5.1 8 5 8c0 0-.1 0-.1.1-.1.4 0 .8.2.9.3 0 .4.2.4.5 0 1.7.7 2 .7 2 .2.1.3.3.3.5v2c0 .2-.1.4-.3.5-2.6 1-4.8 2.2-5.2 2.6V21z"/><path d="M23.5 22H18c-.3 0-.5-.2-.5-.5s.2-.5.5-.5h5v-3.9c-.3-.2-1.5-.7-2.4-1-.6-.2-1.2-.4-1.8-.7-.2-.1-.3-.3-.3-.5v-1.5c0-.2.1-.4.4-.5 0 0 .6-.2.6-1.5 0-.2.2-.4.4-.5.1-.2.2-.9 0-1-.3 0-.4-.2-.4-.5 0-.2.1-.3.2-.5.2-.3.5-.9.3-1.3-.1-.4-1-.8-2-.8s-1.9.3-2 .8c-.1.3-.3.4-.6.4-.2-.1-.3 0-.3 0 0 .1.1.5.3 1 .1.2.1.4.1.5 0 .3-.2.5-.5.5-.1.1 0 .8.1 1 .2.1.4.3.4.5 0 1.3.6 1.5.6 1.5.2.1.4.3.4.5v1c0 .3-.2.5-.5.5s-.5-.2-.5-.5v-.7c-.4-.2-.9-.8-1-2-.3-.3-.5-.9-.5-1.5 0-.2 0-.6.2-.8.1-.1.1-.2.2-.3-.2-.6-.5-1.4 0-1.9.1-.2.4-.3.8-.3.6-.8 1.8-1.1 2.8-1.1 1.1 0 2.6.4 3 1.5.3.8-.1 1.5-.3 2 .1.1.1.2.2.2.1.2.1.6.1.8 0 .6-.2 1.2-.5 1.4-.1 1.2-.6 1.7-1 2v.9c.5.2 1 .4 1.4.5 2.2.8 3.1 1.1 3.1 1.8v4.5c0 .3-.2.5-.5.5z"/></svg>