<svg xmlns="http://www.w3.org/2000/svg" width="24" height="24" viewBox="0 0 24 24"><path d="M19.4 7.3l1.1-1.1.1.1c.1.1.2.1.4.1s.3 0 .4-.1c.2-.2.2-.5 0-.7l-1-1c-.2-.2-.5-.2-.7 0s-.2.5 0 .7l.1.1-1.1 1.1c-1.3-1.2-2.9-2-4.7-2.4V1h1c.3 0 .5-.2.5-.5S15.3 0 15 0H9c-.3 0-.5.2-.5.5s.2.5.5.5h1v3.2c-4.6.9-8 5-8 9.8 0 5.5 4.5 10 10 10s10-4.5 10-10c0-2.6-1-4.9-2.6-6.7zM11 1h2v3.1c-.3-.1-.7-.1-1-.1s-.7 0-1 .1V1zm1 22c-5 0-9-4-9-9s4-9 9-9 9 4 9 9-4 9-9 9z"/><path d="M7.9 9.1c-.2-.1-.6-.1-.8 0s-.1.6 0 .8l4.5 4.5c.1.1.2.1.4.1s.3 0 .4-.1c.2-.2.2-.5 0-.7L7.9 9.1z"/></svg>