<svg xmlns="http://www.w3.org/2000/svg" width="26" height="28" viewBox="0 0 26 28"><path d="M25.312 6.375q-1.047 1.531-2.531 2.609.016.219.016.656 0 2.031-.594 4.055t-1.805 3.883-2.883 3.289-4.031 2.281T8.437 24q-4.234 0-7.75-2.266.547.063 1.219.063 3.516 0 6.266-2.156-1.641-.031-2.938-1.008t-1.781-2.492q.516.078.953.078.672 0 1.328-.172-1.75-.359-2.898-1.742t-1.148-3.211v-.063q1.062.594 2.281.641-1.031-.688-1.641-1.797t-.609-2.406q0-1.375.688-2.547Q4.298 7.25 7.009 8.649t5.805 1.555q-.125-.594-.125-1.156 0-2.094 1.477-3.57t3.57-1.477q2.188 0 3.687 1.594 1.703-.328 3.203-1.219-.578 1.797-2.219 2.781 1.453-.156 2.906-.781z"/></svg>